<svg width="16" height="16" viewBox="0 0 16 16" fill="none" xmlns="http://www.w3.org/2000/svg">
<g clip-path="url(#clip0_154_16)">
<path d="M8.62062 0.701252L8.45809 0.822498L0.682339 6.65449L0.521935 6.77661L0.503524 6.96578L0.0942975 11.4349L0.0597472 11.8189L0.47235 11.9081L14.288 14.9066L14.9339 15.0464L14.9001 14.4441L14.1842 1.6201L14.1636 1.23732L13.7426 1.19705L8.82976 0.721991L8.62062 0.701252ZM8.92787 1.63706L12.7357 2.00639L9.9027 4.12993L7.38476 2.79435L8.92787 1.63706ZM6.56756 3.40724L9.08708 4.74223L4.86025 7.91161L3.8892 5.41566L6.56756 3.40724ZM3.07358 6.02796L4.04467 8.524L1.15839 10.6887L1.47575 7.22699L3.07358 6.02796ZM13.2532 2.78344L13.7823 12.2391L10.6249 4.75522L13.2532 2.78344ZM9.81574 5.36191L12.9731 12.8458L5.39894 8.67587L9.81574 5.36191ZM4.58664 9.28369L12.353 13.5603L1.90892 11.2935L4.58664 9.28369Z" fill="#BA8269"/>
</g>
<defs>
<clipPath id="clip0_154_16">
<rect width="16" height="16" fill="white"/>
</clipPath>
</defs>
</svg>
