<svg width="33" height="36" viewBox="0 0 33 36" fill="none" xmlns="http://www.w3.org/2000/svg">
<path d="M18.6112 0.902721L18.267 1.19256L1.80248 15.1342L1.46284 15.4261L1.42407 15.8786L0.562745 26.5688L0.490033 27.4873L1.36418 27.7009L30.6345 34.8899L32.0028 35.2249L31.9305 33.7842L30.398 3.10716L30.3538 2.19149L29.462 2.09468L19.0542 0.952574L18.6112 0.902721ZM19.2632 3.14162L27.3301 4.02951L21.3314 9.10591L15.9958 5.90815L19.2632 3.14162ZM14.2654 7.3733L19.6043 10.5696L10.6544 18.1462L8.59422 12.1745L14.2654 7.3733ZM6.86721 13.6382L8.92743 19.6101L2.81594 24.7849L3.48392 16.5046L6.86721 13.6382ZM28.4273 5.8889L29.5598 28.5084L22.862 10.6025L28.4273 5.8889ZM21.1487 12.0528L27.8464 29.9587L11.7964 19.975L21.1487 12.0528ZM10.0765 21.428L26.5337 31.6671L4.40659 26.2326L10.0765 21.428Z" fill="#FFFEFE"/>
</svg>
